<?xml version="1.0" encoding="utf-8"?>
<!-- Generator: Adobe Illustrator 24.2.1, SVG Export Plug-In . SVG Version: 6.00 Build 0)  -->
<svg version="1.1" id="Layer_1" xmlns="http://www.w3.org/2000/svg" xmlns:xlink="http://www.w3.org/1999/xlink" x="0px" y="0px"
	 width="1000px" height="506px" viewBox="0 0 1000 506" enable-background="new 0 0 1000 506" xml:space="preserve">
<g>
	<polygon fill="#F2F2F2" points="224.1,216.1 258.6,216.1 258.6,181.4 293.3,181.4 293.3,146.9 258.6,146.9 258.6,112.2 
		224.1,112.2 224.1,146.9 189.4,146.9 189.4,181.4 224.1,181.4 	"/>
	<path fill="#F2F2F2" d="M14.7,387c-7.8,26.6-2.7,54.5,13.9,76.6c16.6,22.1,42,34.8,69.6,34.8c24.6,0,48.2-10.5,64.7-28.8
		l140.8-156.2h61.5V12.2H124.3L14.7,387z M330.7,46.7V279h-42.4L137.2,446.6c-10,11-24.2,17.4-39,17.4c-16.7,0-32-7.7-42-21
		c-10-13.4-13.1-30.2-8.4-46.3l102.3-350H330.7z"/>
	
		<ellipse transform="matrix(0.9951 -9.853747e-02 9.853747e-02 0.9951 -8.7366 75.2795)" fill="#F2F2F2" cx="757.7" cy="126.1" rx="18.5" ry="18.5"/>
	
		<ellipse transform="matrix(0.3827 -0.9239 0.9239 0.3827 280.8976 824.9222)" fill="#F2F2F2" cx="757.7" cy="202.3" rx="18.5" ry="18.5"/>
	
		<ellipse transform="matrix(0.9871 -0.1602 0.1602 0.9871 -17.0055 117.3952)" fill="#F2F2F2" cx="719.7" cy="164.2" rx="18.5" ry="18.5"/>
	
		<ellipse transform="matrix(0.3827 -0.9239 0.9239 0.3827 339.6003 836.5989)" fill="#F2F2F2" cx="795.8" cy="164.2" rx="18.5" ry="18.5"/>
	<path fill="#F2F2F2" d="M984.4,387L874.8,12.2H633.9v301.3h61.5l140.8,156.2c16.5,18.3,40,28.8,64.7,28.8
		c27.7,0,53.1-12.7,69.6-34.8C987.1,441.5,992.2,413.6,984.4,387z M942.9,442.9c-10,13.4-25.3,21-42,21c-14.9,0-29.1-6.3-39-17.4
		L710.8,279h-42.4V46.7H849l102.3,350C956,412.7,953,429.6,942.9,442.9z"/>
</g>
<g>
	<path fill="#F2F2F2" d="M498,120.6h-34.2l-36.2-54.9v54.9h-34.2V11.5h34.2l36.2,55.8V11.5H498V120.6z"/>
</g>
<g>
	<path fill="#F2F2F2" d="M479,204.9V232h-29v82h-34.2v-82h-28.7v-27.1H479z"/>
</g>
<g>
	<path fill="#F2F2F2" d="M608.6,11.5v27.1h-42.8v15.1h30.8v25.7h-30.8v41.1h-34.2V11.5H608.6z"/>
</g>
<g>
	<path fill="#F2F2F2" d="M615.2,261.1c-3.2,5.6-7.9,10-14.1,13.3c-6.2,3.3-13.7,4.9-22.6,4.9H565V314h-34.2V204.9h47.8
		c13.4,0,23.6,3.4,30.7,10.2c7.1,6.8,10.7,15.9,10.7,27.3C620,249.3,618.4,255.5,615.2,261.1z M585.3,242.4c0-6.7-3.5-10-10.6-10
		H565v20h9.7C581.8,252.4,585.3,249,585.3,242.4z"/>
</g>
<g>
	<path fill="#F2F2F2" d="M304.9,392.3h-7.7l-12.8-19.4v19.4h-7.7v-31.5h7.7l12.8,19.5v-19.5h7.7V392.3z"/>
	<path fill="#F2F2F2" d="M318.3,390.6c-2.5-1.4-4.4-3.3-5.9-5.8c-1.5-2.5-2.2-5.2-2.2-8.3c0-3.1,0.7-5.9,2.2-8.3s3.4-4.4,5.9-5.7
		c2.5-1.4,5.2-2.1,8.1-2.1c3,0,5.7,0.7,8.1,2.1c2.5,1.4,4.4,3.3,5.8,5.7s2.1,5.2,2.1,8.3c0,3.1-0.7,5.9-2.2,8.3
		c-1.4,2.5-3.4,4.4-5.8,5.8c-2.5,1.4-5.2,2.1-8.1,2.1C323.5,392.6,320.8,391.9,318.3,390.6z M332.5,383.1c1.5-1.7,2.3-3.9,2.3-6.6
		c0-2.8-0.8-5-2.3-6.7c-1.5-1.7-3.5-2.5-6-2.5c-2.5,0-4.6,0.8-6.1,2.5c-1.5,1.6-2.3,3.9-2.3,6.7c0,2.8,0.8,5,2.3,6.7
		c1.5,1.7,3.5,2.5,6.1,2.5C329,385.6,331,384.8,332.5,383.1z"/>
	<path fill="#F2F2F2" d="M379.1,360.8v6.1h-12.8v6.6h9.6v6h-9.6v12.7h-7.7v-31.5H379.1z"/>
	<path fill="#F2F2F2" d="M400.4,392.3l-6.6-11.9H392v11.9h-7.7v-31.5h12.9c2.5,0,4.6,0.4,6.4,1.3c1.8,0.9,3.1,2.1,3.9,3.6
		c0.9,1.5,1.3,3.2,1.3,5.1c0,2.1-0.6,4-1.8,5.6c-1.2,1.6-2.9,2.8-5.2,3.5l7.3,12.5H400.4z M392,375h4.8c1.4,0,2.5-0.3,3.2-1
		c0.7-0.7,1.1-1.7,1.1-2.9c0-1.2-0.4-2.1-1.1-2.8c-0.7-0.7-1.8-1-3.2-1H392V375z"/>
	<path fill="#F2F2F2" d="M422.4,360.8v31.5h-7.7v-31.5H422.4z"/>
	<path fill="#F2F2F2" d="M436.7,367v6.4H447v5.9h-10.3v6.9h11.6v6.1H429v-31.5h19.3v6.1H436.7z"/>
	<path fill="#F2F2F2" d="M482.6,392.3H475l-12.8-19.4v19.4h-7.7v-31.5h7.7l12.8,19.5v-19.5h7.7V392.3z"/>
	<path fill="#F2F2F2" d="M509.8,362.8c2.5,1.3,4.4,3.2,5.8,5.5c1.4,2.4,2,5.1,2,8.2c0,3.1-0.7,5.8-2,8.2c-1.4,2.4-3.3,4.2-5.8,5.6
		c-2.5,1.3-5.4,2-8.7,2h-11.8v-31.5h11.8C504.5,360.8,507.4,361.5,509.8,362.8z M507.4,383.3c1.6-1.6,2.4-3.8,2.4-6.7
		c0-2.9-0.8-5.2-2.4-6.8c-1.6-1.6-3.9-2.4-6.8-2.4H497v18.3h3.6C503.5,385.7,505.8,384.9,507.4,383.3z"/>
	<path fill="#F2F2F2" d="M556.4,360.8v6.1H548v25.4h-7.7V367H532v-6.1H556.4z"/>
	<path fill="#F2F2F2" d="M568.1,390.6c-2.5-1.4-4.4-3.3-5.9-5.8c-1.5-2.5-2.2-5.2-2.2-8.3c0-3.1,0.7-5.9,2.2-8.3
		c1.5-2.5,3.4-4.4,5.9-5.7c2.5-1.4,5.2-2.1,8.1-2.1c3,0,5.7,0.7,8.1,2.1c2.5,1.4,4.4,3.3,5.8,5.7s2.1,5.2,2.1,8.3
		c0,3.1-0.7,5.9-2.2,8.3c-1.4,2.5-3.4,4.4-5.8,5.8c-2.5,1.4-5.2,2.1-8.1,2.1C573.3,392.6,570.6,391.9,568.1,390.6z M582.3,383.1
		c1.5-1.7,2.3-3.9,2.3-6.6c0-2.8-0.8-5-2.3-6.7c-1.5-1.7-3.5-2.5-6-2.5c-2.5,0-4.6,0.8-6.1,2.5c-1.5,1.6-2.3,3.9-2.3,6.7
		c0,2.8,0.8,5,2.3,6.7c1.5,1.7,3.5,2.5,6.1,2.5C578.8,385.6,580.8,384.8,582.3,383.1z"/>
	<path fill="#F2F2F2" d="M631.2,376c-0.8,1.5-2.1,2.7-3.9,3.7c-1.7,0.9-3.9,1.4-6.5,1.4h-4.8v11.3h-7.7v-31.5h12.4
		c2.5,0,4.6,0.4,6.4,1.3c1.7,0.9,3,2.1,3.9,3.6c0.9,1.5,1.3,3.3,1.3,5.3C632.4,372.8,632,374.4,631.2,376z M623.6,373.9
		c0.7-0.7,1.1-1.7,1.1-2.9c0-1.3-0.4-2.2-1.1-2.9c-0.7-0.7-1.8-1-3.3-1h-4.2v7.9h4.2C621.7,374.9,622.8,374.6,623.6,373.9z"/>
	<path fill="#F2F2F2" d="M645.2,386.4h10.1v5.9h-17.7v-31.5h7.7V386.4z"/>
	<path fill="#F2F2F2" d="M679.7,386.7h-11.8l-1.9,5.6h-8l11.4-31.5h8.9l11.4,31.5h-8.1L679.7,386.7z M677.7,380.8l-3.9-11.5
		l-3.9,11.5H677.7z"/>
	<path fill="#F2F2F2" d="M721.3,360.8l-10.9,21.1v10.4h-7.7v-10.4l-10.9-21.1h8.7l6.1,13.2l6.1-13.2H721.3z"/>
</g>
</svg>
